HIERARCHY
ROOT Hips
{
	OFFSET -0.001795 -0.223333 0.028219
	CHANNELS 6 Xposition Yposition Zposition Zrotation Yrotation Xrotation 
	JOINT LeftUpLeg
	{
		OFFSET 0.069520 -0.091406 -0.006815
		CHANNELS 3 Zrotation Yrotation Xrotation
		JOINT LeftLeg
		{
			OFFSET 0.034277 -0.375199 -0.004496
			CHANNELS 3 Zrotation Yrotation Xrotation
			JOINT LeftFoot
			{
				OFFSET -0.013596 -0.397961 -0.043693
				CHANNELS 3 Zrotation Yrotation Xrotation
				JOINT LeftToe
				{
					OFFSET 0.026358 -0.055791 0.119288
					CHANNELS 3 Zrotation Yrotation Xrotation
					End Site
					{
						OFFSET 0.000000 0.000000 0.000000
					}
				}
			}
		}
	}
	JOINT RightUpLeg
	{
		OFFSET -0.067670 -0.090522 -0.004320
		CHANNELS 3 Zrotation Yrotation Xrotation
		JOINT RightLeg
		{
			OFFSET -0.038290 -0.382569 -0.008850
			CHANNELS 3 Zrotation Yrotation Xrotation
			JOINT RightFoot
			{
				OFFSET 0.015774 -0.398415 -0.042312
				CHANNELS 3 Zrotation Yrotation Xrotation
				JOINT RightToe
				{
					OFFSET -0.025372 -0.048144 0.123348
					CHANNELS 3 Zrotation Yrotation Xrotation
					End Site
					{
						OFFSET 0.000000 0.000000 0.000000
					}
				}
			}
		}
	}
	JOINT Spine
	{
		OFFSET -0.002533 0.108963 -0.026696
		CHANNELS 3 Zrotation Yrotation Xrotation
		JOINT Spine1
		{
			OFFSET 0.005487 0.135180 0.001092
			CHANNELS 3 Zrotation Yrotation Xrotation
			JOINT Spine2
			{
				OFFSET 0.001457 0.052922 0.025425
				CHANNELS 3 Zrotation Yrotation Xrotation
				JOINT Neck
				{
					OFFSET -0.002778 0.213870 -0.042857
					CHANNELS 3 Zrotation Yrotation Xrotation
					JOINT Head
					{
						OFFSET 0.005152 0.064970 0.051349
						CHANNELS 3 Zrotation Yrotation Xrotation
						End Site
						{
							OFFSET 0.000000 0.000000 0.000000
						}
					}
				}
				JOINT LeftShoulder
				{
					OFFSET 0.078845 0.121749 -0.034090
					CHANNELS 3 Zrotation Yrotation Xrotation
					JOINT LeftArm
					{
						OFFSET 0.090977 0.030469 -0.008868
						CHANNELS 3 Zrotation Yrotation Xrotation
						JOINT LeftForeArm
						{
							OFFSET 0.259612 -0.012772 -0.027456
							CHANNELS 3 Zrotation Yrotation Xrotation
							JOINT LeftHand
							{
								OFFSET 0.249234 0.008986 -0.001171
								CHANNELS 3 Zrotation Yrotation Xrotation
								End Site
								{
									OFFSET 0.000000 0.000000 0.000000
								}
							}
						}
					}
				}
				JOINT RightShoulder
				{
					OFFSET -0.081759 0.118833 -0.038615
					CHANNELS 3 Zrotation Yrotation Xrotation
					JOINT RightArm
					{
						OFFSET -0.096012 0.032551 -0.009143
						CHANNELS 3 Zrotation Yrotation Xrotation
						JOINT RightForeArm
						{
							OFFSET -0.253742 -0.013329 -0.021401
							CHANNELS 3 Zrotation Yrotation Xrotation
							JOINT RightHand
							{
								OFFSET -0.255298 0.007772 -0.005559
								CHANNELS 3 Zrotation Yrotation Xrotation
								End Site
								{
									OFFSET 0.000000 0.000000 0.000000
								}
							}
						}
					}
				}
			}
		}
	}
}
MOTION
Frames: 8
Frame Time: 0.050000
-0.474167 0.885861 -0.998007 -4.306561 -15.405777 20.290741 1.313983 -0.510326 -46.057717 4.430888 -1.002331 50.345185 6.526532 13.273559 -3.367863 0.000000 0.000000 0.000000 1.604317 8.303867 -46.621509 8.872062 -0.270087 36.383041 -8.689215 -23.189823 -2.808284 0.000000 0.000000 0.000000 4.048102 0.116430 61.530124 -3.176912 1.053934 -29.623629 -6.109377 4.021159 30.087089 15.268161 -3.110300 -43.196384 0.000000 0.000000 0.000000 19.000419 -34.081734 6.770120 12.466135 -58.453529 -10.335336 48.599935 19.313784 8.808310 0.000000 0.000000 0.000000 9.585763 9.300731 3.879744 71.852847 46.681271 22.546119 -86.156870 48.861943 -35.999866 0.000000 0.000000 0.000000 
-0.474528 0.879823 -1.012956 -4.324109 -15.368841 20.431333 1.588287 -0.295198 -48.026677 4.367838 -1.054377 51.320915 6.689557 13.504417 -4.853115 0.000000 0.000000 0.000000 0.950886 8.608611 -48.749131 9.838370 -0.643907 38.844101 -9.135625 -24.546981 -3.092792 0.000000 0.000000 0.000000 3.393901 0.595531 62.538177 -3.352348 1.078753 -30.142951 -6.075088 3.889337 30.580417 14.564682 -3.348933 -40.803060 0.000000 0.000000 0.000000 20.423748 -33.461831 6.210679 12.160600 -58.645442 -10.225735 49.093216 18.141651 8.391457 0.000000 0.000000 0.000000 9.691480 10.136778 4.298009 70.697638 48.515899 23.355879 -83.168608 46.383785 -31.967798 0.000000 0.000000 0.000000 
-0.477116 0.874004 -1.025424 -3.933490 -14.803964 19.913232 1.990069 -0.237389 -48.557124 3.677634 -0.794430 51.091676 7.265916 14.767911 -5.489728 0.000000 0.000000 0.000000 0.453858 8.484551 -49.481084 10.072826 -0.779930 41.514801 -9.257870 -24.847514 -3.508552 0.000000 0.000000 0.000000 2.698123 0.968190 64.238017 -3.005602 1.029238 -30.195543 -6.432753 3.677896 30.459087 13.607349 -3.038345 -40.255075 0.000000 0.000000 0.000000 22.068957 -32.934518 5.661923 10.829620 -58.081727 -9.469277 50.289382 18.687644 8.855755 0.000000 0.000000 0.000000 7.997807 10.346041 4.351469 73.468489 50.071859 26.236421 -77.425258 44.509716 -27.273654 0.000000 0.000000 0.000000 
-0.481665 0.868706 -1.035222 -3.612557 -13.646151 19.838843 2.180544 -0.360680 -49.910221 3.209946 -0.782849 52.947784 8.066424 16.548584 -5.451293 0.000000 0.000000 0.000000 0.074299 8.378364 -50.668464 10.723599 -1.262125 44.397336 -9.400421 -25.217376 -4.023214 0.000000 0.000000 0.000000 2.547755 0.651749 64.802569 -3.171126 1.074169 -30.027068 -6.870167 3.230234 30.926951 12.979827 -2.892925 -39.855777 0.000000 0.000000 0.000000 23.365863 -32.515569 5.176528 9.734185 -56.846222 -8.631128 52.500829 19.033087 9.493901 0.000000 0.000000 0.000000 7.833971 11.276067 4.753295 74.487224 50.931276 27.468924 -73.689807 44.119039 -25.160786 0.000000 0.000000 0.000000 
-0.487757 0.863344 -1.041798 -2.989005 -12.384611 19.594960 2.525181 -0.451724 -51.622183 2.882263 -0.916867 54.657702 8.161218 16.742795 -3.793028 0.000000 0.000000 0.000000 -0.432025 7.987254 -51.103050 11.396376 -1.838208 47.186870 -9.728936 -26.128028 -6.052218 0.000000 0.000000 0.000000 2.413185 0.310101 66.358923 -3.455607 1.125378 -30.906078 -7.448767 2.706073 31.377467 13.430177 -3.068449 -40.010746 0.000000 0.000000 0.000000 24.186263 -31.546944 4.766568 8.477010 -55.653476 -7.820533 57.159459 18.044322 10.069055 0.000000 0.000000 0.000000 8.524474 11.060841 4.695648 75.167622 51.400614 28.197081 -69.958935 45.413298 -24.272644 0.000000 0.000000 0.000000 
-0.495225 0.856400 -1.044522 -2.522886 -12.305964 19.452022 2.043590 -0.610354 -54.099935 3.427372 -1.456925 56.685304 8.840329 18.142708 -1.880824 0.000000 0.000000 0.000000 -0.818944 7.825987 -51.226843 12.237588 -2.335554 50.043619 -10.013282 -27.285326 -9.341667 0.000000 0.000000 0.000000 1.121621 1.263156 67.337875 -2.829991 1.034554 -30.686395 -7.910655 2.666670 31.553183 12.089976 -2.722586 -38.755793 0.000000 0.000000 0.000000 26.501836 -27.738755 3.724222 6.053961 -55.457854 -6.737236 61.819493 16.647875 10.411204 0.000000 0.000000 0.000000 8.977958 10.341349 4.426482 73.678990 51.208777 27.172713 -66.647173 48.218759 -24.532127 0.000000 0.000000 0.000000 
-0.503930 0.846957 -1.042505 -2.298630 -12.123587 19.452481 1.894154 -0.566252 -58.430353 4.467678 -2.624774 63.534452 7.935507 16.372916 1.650957 0.000000 0.000000 0.000000 0.136963 8.464014 -52.505073 11.235805 -1.820773 54.064856 -10.304013 -28.391899 -10.756063 0.000000 0.000000 0.000000 0.374242 1.749002 67.759412 -2.970470 1.051648 -31.890108 -7.822174 3.329230 33.258984 11.755827 -2.803812 -37.450091 0.000000 0.000000 0.000000 26.499053 -26.769929 3.583889 4.321864 -53.096674 -5.958313 67.673069 12.578376 9.033730 0.000000 0.000000 0.000000 10.099667 8.957427 3.991460 71.194231 49.704281 24.401168 -65.495455 53.085863 -26.722247 0.000000 0.000000 0.000000 
-0.513115 0.835759 -1.035080 -1.723827 -11.496545 17.389517 2.648281 -0.278609 -61.934912 3.820567 -2.765083 70.420716 6.136797 13.092849 3.041992 0.000000 0.000000 0.000000 0.329819 8.081273 -51.166158 11.525177 -2.125874 57.761608 -10.415123 -28.757216 -12.443404 0.000000 0.000000 0.000000 -0.297412 2.092207 70.114214 -2.954632 1.068704 -31.248584 -7.939860 3.096977 33.529322 11.742959 -3.159402 -35.493865 0.000000 0.000000 0.000000 26.855424 -25.273165 3.282910 2.469983 -51.564098 -5.108840 73.633609 10.302202 8.456223 0.000000 0.000000 0.000000 9.188688 7.944131 3.507346 70.870236 47.792219 22.721546 -68.370231 58.415470 -31.949101 0.000000 0.000000 0.000000 
